<?xml version="1.0" standalone="no"?>
<!DOCTYPE svg PUBLIC "-//W3C//DTD SVG 1.1//EN" "http://www.w3.org/Graphics/SVG/1.1/DTD/svg11.dtd">
<svg xmlns="http://www.w3.org/2000/svg" id="Layer_2" data-name="Layer 2" viewBox="0 0 190.55 101.63" width="190.5500030517578" height="101.62999725341797">
  <defs>
    <style>
      .cls-1 {
        fill: #fff;
      }

      .cls-2 {
        fill: #0077bf;
      }

      .cls-3 {
        fill: none;
        stroke: #fff;
        stroke-miterlimit: 10;
        stroke-width: .28px;
      }
    </style>
  </defs>
  <g id="Layer_1-2" data-name="Layer 1">
    <g>
      <path class="cls-1" d="m74.61,23.52c-1.92-4.63-4.6-8.68-8.04-12.15-3.44-3.47-7.54-6.23-12.3-8.29C49.51,1.03,44.32,0,38.7,0c-5.16,0-9.74.76-13.74,2.28-4,1.52-7.48,3.46-10.42,5.8-2.94,2.35-5.38,4.88-7.29,7.59-1.92,2.71-3.37,5.26-4.37,7.64-1.13,2.71-1.89,5.39-2.28,8.04C.2,34,0,36.54,0,38.99c0,4.7.92,9.28,2.78,13.74,1.85,4.46,4.46,8.43,7.84,11.91,3.37,3.47,7.44,6.27,12.2,8.38,4.76,2.12,10.02,3.18,15.78,3.18,5.69,0,10.91-1.03,15.68-3.07,4.76-2.05,8.86-4.81,12.3-8.28,3.44-3.47,6.12-7.52,8.04-12.15,1.92-4.63,2.88-9.49,2.88-14.59,0-5.09-.96-9.95-2.88-14.59m-15.67,22.8c-1.08,2.61-2.59,4.89-4.53,6.85-1.94,1.96-4.25,3.51-6.93,4.67-2.68,1.15-5.63,1.73-8.83,1.73-3.24,0-6.2-.6-8.89-1.79-2.68-1.19-4.97-2.77-6.87-4.72-1.9-1.96-3.37-4.19-4.41-6.71-1.04-2.51-1.56-5.09-1.56-7.74,0-1.38.11-2.81.34-4.3.22-1.49.65-3,1.29-4.53.56-1.34,1.38-2.77,2.46-4.3,1.08-1.53,2.45-2.95,4.11-4.27,1.66-1.32,3.61-2.41,5.87-3.27,2.25-.86,4.83-1.28,7.74-1.28,3.17,0,6.09.58,8.77,1.73,2.68,1.16,4.99,2.71,6.93,4.67,1.94,1.96,3.45,4.24,4.53,6.85,1.08,2.61,1.62,5.35,1.62,8.22,0,2.87-.54,5.61-1.62,8.22"/>
      <path class="cls-1" d="m6.31,89.72h-3.65c-.24,0-.43-.19-.43-.43s.19-.43.43-.43h9.1c.24,0,.43.19.43.43s-.19.43-.43.43h-3.65c-.24,0-.43.19-.43.43v10.72c0,.24-.19.43-.43.43h-.11c-.24,0-.43-.19-.43-.43v-10.72c0-.24-.19-.43-.43-.43"/>
      <path class="cls-3" d="m6.31,89.72h-3.65c-.24,0-.43-.19-.43-.43s.19-.43.43-.43h9.1c.24,0,.43.19.43.43s-.19.43-.43.43h-3.65c-.24,0-.43.19-.43.43v10.72c0,.24-.19.43-.43.43h-.11c-.24,0-.43-.19-.43-.43v-10.72c0-.24-.19-.43-.43-.43Z"/>
      <path class="cls-1" d="m40.28,99.92l-3.13-3.39h.01c2.71,0,4.04-1.78,4.02-3.81-.02-1.94-1.39-3.88-4.09-3.88h-5.05c-.24,0-.43.19-.43.43v11.59c0,.24.19.43.43.43h.11c.24,0,.43-.19.43-.43v-10.7c0-.24.19-.43.43-.43h4.09c2.06,0,3.06,1.51,3.04,2.97-.02,1.74-.98,2.97-3.15,2.97h-.87c-.37,0-.57.44-.32.71l3.23,3.53,1.12,1.23c.08.09.2.14.32.14h.1c.37,0,.57-.44.31-.72l-.61-.66Z"/>
      <path class="cls-3" d="m40.28,99.92l-3.13-3.39h.01c2.71,0,4.04-1.78,4.02-3.81-.02-1.94-1.39-3.88-4.09-3.88h-5.05c-.24,0-.43.19-.43.43v11.59c0,.24.19.43.43.43h.11c.24,0,.43-.19.43-.43v-10.7c0-.24.19-.43.43-.43h4.09c2.06,0,3.06,1.51,3.04,2.97-.02,1.74-.98,2.97-3.15,2.97h-.87c-.37,0-.57.44-.32.71l3.23,3.53,1.12,1.23c.08.09.2.14.32.14h.1c.37,0,.57-.44.31-.72l-.61-.66Z"/>
      <path class="cls-1" d="m100.19,89.44l-4.77,11.63c-.07.16-.22.26-.39.26h-.46c-.17,0-.33-.1-.4-.26l-4.77-11.63c-.11-.28.09-.59.39-.59h.11c.17,0,.33.11.4.27l4.1,10.14c.14.36.65.36.79,0l4.1-10.14c.07-.16.22-.27.4-.27h.11c.3,0,.51.31.39.59"/>
      <path class="cls-3" d="m100.19,89.44l-4.77,11.63c-.07.16-.22.26-.39.26h-.46c-.17,0-.33-.1-.4-.26l-4.77-11.63c-.11-.28.09-.59.39-.59h.11c.17,0,.33.11.4.27l4.1,10.14c.14.36.65.36.79,0l4.1-10.14c.07-.16.22-.27.4-.27h.11c.3,0,.51.31.39.59Z"/>
      <path class="cls-1" d="m70.1,101.05l-4.1-10.14c-.14-.36-.65-.36-.79,0l-4.1,10.14c-.06.16-.22.27-.4.27h-.11c-.3,0-.51-.31-.39-.59l4.77-11.63c.07-.16.22-.26.4-.26h.46c.17,0,.33.1.39.26l4.77,11.63c.11.28-.09.59-.4.59h-.11c-.17,0-.33-.11-.4-.27"/>
      <path class="cls-3" d="m70.1,101.05l-4.1-10.14c-.14-.36-.65-.36-.79,0l-4.1,10.14c-.06.16-.22.27-.4.27h-.11c-.3,0-.51-.31-.39-.59l4.77-11.63c.07-.16.22-.26.4-.26h.46c.17,0,.33.1.39.26l4.77,11.63c.11.28-.09.59-.4.59h-.11c-.17,0-.33-.11-.4-.27Z"/>
      <path class="cls-1" d="m120.95,94.59h6.44c.24,0,.43.19.43.43v.02c0,.24-.19.43-.43.43h-6.44c-.24,0-.43.19-.43.43v4.05c0,.24.19.43.43.43h7.01c.24,0,.43.19.43.43v.07c0,.24-.19.43-.43.43h-7.95c-.24,0-.43-.19-.43-.43v-11.59c0-.24.19-.43.43-.43h7.73c.24,0,.43.19.43.43v.05c0,.24-.19.43-.43.43h-6.79c-.24,0-.43.19-.43.43v3.98c0,.24.19.43.43.43"/>
      <path class="cls-3" d="m120.95,94.59h6.44c.24,0,.43.19.43.43v.02c0,.24-.19.43-.43.43h-6.44c-.24,0-.43.19-.43.43v4.05c0,.24.19.43.43.43h7.01c.24,0,.43.19.43.43v.07c0,.24-.19.43-.43.43h-7.95c-.24,0-.43-.19-.43-.43v-11.59c0-.24.19-.43.43-.43h7.73c.24,0,.43.19.43.43v.05c0,.24-.19.43-.43.43h-6.79c-.24,0-.43.19-.43.43v3.98c0,.24.19.43.43.43Z"/>
      <path class="cls-1" d="m150.15,89.27v10.69c0,.24.19.43.43.43h6.15c.24,0,.43.19.43.43v.05c0,.24-.19.43-.43.43h-7.11c-.24,0-.43-.19-.43-.43v-11.59c0-.24.19-.43.43-.43h.11c.24,0,.43.19.43.43"/>
      <path class="cls-3" d="m150.15,89.27v10.69c0,.24.19.43.43.43h6.15c.24,0,.43.19.43.43v.05c0,.24-.19.43-.43.43h-7.11c-.24,0-.43-.19-.43-.43v-11.59c0-.24.19-.43.43-.43h.11c.24,0,.43.19.43.43Z"/>
      <path class="cls-1" d="m186.48,91.05c-.18.11-.42.06-.55-.11-.91-1.18-2.26-1.37-3.56-1.38-1.46,0-3.77.53-3.77,2.52,0,1.58,1.71,1.96,3.8,2.35,2.4.46,4.89.89,4.89,3.57-.02,2.81-2.85,3.48-4.93,3.48-1.79,0-3.81-.68-4.86-2.29-.14-.21-.06-.5.17-.62l.09-.05c.19-.1.42-.04.54.14.86,1.3,2.65,1.94,4.06,1.94,1.53,0,3.97-.43,3.97-2.63.02-1.87-2.04-2.28-4.09-2.67-2.28-.44-4.61-.91-4.61-3.2-.05-2.63,2.68-3.45,4.73-3.45,1.64,0,3.08.24,4.26,1.72.16.2.11.51-.12.64l-.04.02Z"/>
      <path class="cls-3" d="m186.48,91.05c-.18.11-.42.06-.55-.11-.91-1.18-2.26-1.37-3.56-1.38-1.46,0-3.77.53-3.77,2.52,0,1.58,1.71,1.96,3.8,2.35,2.4.46,4.89.89,4.89,3.57-.02,2.81-2.85,3.48-4.93,3.48-1.79,0-3.81-.68-4.86-2.29-.14-.21-.06-.5.17-.62l.09-.05c.19-.1.42-.04.54.14.86,1.3,2.65,1.94,4.06,1.94,1.53,0,3.97-.43,3.97-2.63.02-1.87-2.04-2.28-4.09-2.67-2.28-.44-4.61-.91-4.61-3.2-.05-2.63,2.68-3.45,4.73-3.45,1.64,0,3.08.24,4.26,1.72.16.2.11.51-.12.64l-.04.02Z"/>
      <path class="cls-1" d="m84.52,6.28h12.36c2.17,0,3.92,1.76,3.92,3.92v45.53h18.87v10.24c0,2.24-1.82,4.06-4.06,4.06h-26.98c-2.27,0-4.11-1.84-4.11-4.11V6.28Z"/>
      <path class="cls-1" d="m147.65,60.81l-2.39,6.56c-.58,1.59-2.1,2.65-3.79,2.65h-14.67l25.59-63.76h9.51c2.01,0,3.82,1.23,4.56,3.09l24.1,60.66h-14.76c-1.73,0-3.27-1.11-3.83-2.75l-2.18-6.47h-22.14Zm4.48-12.92h13.35l-6.55-21.8h-.26l-6.55,21.8Z"/>
      <path class="cls-2" d="m36.44,73.55c-.05-.14-.1-1.55-1.03-2.6-.12-.14-.13-.35-.21-.55.55-.39,1.09-.79,1.65-1.17.8-.55,1.63-1.05,2.54-1.39.2-.07.37-.07.56,0,1.29.49,2.45,1.22,3.58,1.99.2.14.38.29.59.41.16.1.16.19.09.35-.93,1.24-.91,2.24-1.36,3.36-.15.38-.25.4-.56.11-.37-.34-.79-.56-1.31-.59-.49-.03-.85.23-1.24.52-.4.31-.64.17-1.04-.16-.33-.27-.7-.48-1.13-.47-.36,0-.73.12-1.13.19"/>
      <path class="cls-2" d="m44.49,69.92c-.48-.32-.94-.46-1.4-.76-1.03-.68-1.91-1.21-3.06-1.64-.1-.04-.43-.25-.53-.22-1.42.47-2.64,1.3-3.83,2.17-.21.15-.42.3-.66.48-.08-.26-.18-.48-.22-.71-.05-.26.06-.49.27-.66,2-1.22,2.64-2.65,4.41-2.81.19-.08.34-.07.53,0,1.53.65,2.93,1.48,4.2,2.55.34.29.64.59.5,1.08-.05.17-.13.33-.21.51"/>
      <path class="cls-2" d="m36.63,66.72c0-.86,0-1.67,0-2.48,0-.44.31-.74.75-.74,1.57,0,3.13,0,4.7,0,.42,0,.74.3.74.71,0,.83,0,1.66,0,2.51-.08-.04-.14-.06-.2-.09-.88-.45-1.51-1.05-2.54-1.29-.21-.05-.7,0-.89.08-.81.39-1.48.7-2.28,1.12-.08.04-.16.1-.28.17m3.06-1.99c.11,0,.2.03.26,0,.1-.05.24-.14.24-.21,0-.08-.12-.19-.21-.25-.07-.04-.17-.01-.26-.01-.2,0-.46-.04-.46.26,0,.29.27.21.43.22m1.73,0h0c.06,0,.12,0,.19,0,.15,0,.26-.05.27-.22,0-.18-.1-.26-.26-.26-.16,0-.33-.02-.47.02-.08.02-.18.15-.18.24,0,.08.11.17.2.22.07.04.17,0,.26,0m-3.37,0h0c.06,0,.12,0,.19,0,.17.01.3-.07.27-.24-.02-.09-.15-.2-.25-.23-.14-.04-.31-.04-.45,0-.09.03-.21.15-.21.24,0,.07.13.17.22.22.06.03.16,0,.24,0"/>
      <path class="cls-2" d="m39.19,75.05c-.41,0-.76-.12-1.05-.42-.41-.42-.81-.44-1.29-.11-.17.11-.33.24-.49.36-.45.35-.94.34-1.44.11-.34-.15-.65-.36-.98-.53-.44-.23-.88-.32-1.32.03-.07.05-.17.11-.33-.01.02-.12,0-.28.06-.35.39-.35.86-.48,1.36-.28.38.16.75.36,1.12.56.63.34,1.04.32,1.55-.13.61-.53,1.32-.72,2.11-.02.4.36,1.03.44,1.51-.03.48-.47,1.32-.39,1.9.11.6.52,1.08.5,1.66-.04.75-.71,1.39-.74,2.22-.1.47.36.78.54,1.39.1.08-.06.28-.03.36.04.13.1.02.21-.08.3-.54.49-1.25.5-1.87.02-.13-.1-.25-.23-.4-.31-.39-.22-.85-.13-1.21.18-.25.22-.53.43-.83.56-.55.24-1.05.12-1.5-.29-.48-.44-1-.55-1.51-.06-.25.24-.54.32-.94.32"/>
      <path class="cls-2" d="m41.28,63.18c-.54-.03-1.04-.08-1.55-.08-.5,0-1.01.06-1.54.1,0-.19.32-1.59,0-2.55-.03-.09.09-.21.17-.25.82-.44,1.66-.52,2.53-.12.28.13.52.33.38.61-.21.42,0,2.19,0,2.28"/>
      <path class="cls-2" d="m62.28,55.72c.51.51.67.8.67.8,0,0,.09-.89-.29-1.87-.38-.98-.96-2.12-1.27-2.16-.31-.04.36-.11.62-.36.27-.24.42-.78.42-.78,0,0-1.18-.29-1.72.56,0,0-.62-.04-1.31-.09-.69-.04-1.38-.36-1.8-.04-.42.31-1.34,1.09-1.87,1.31-.53.22-1.05.25-1.07.71-.02.47.04,1.18.71,1.05.67-.13,1.02-.51,1.23-.47.2.04.71.71.51.98-.2.27-.24.33-.71.31-.47-.02-.94-.22-1.05.18-.11.4-.31.51,0,.67.31.16.83.14.94.03.11-.11.79-.3.79-.3,0,0-.51.56-.65.85-.13.29-.18,1.14-.11,1.51.07.38.09.8.09.8,0,0-.89-.27-1.54-.36-.65-.09-.76,0-.76,0,0,0,.76.22.96,1,.2.78-.49,3.76-.31,4.7.18.94.47,1.6.69,1.85s.8.6.8.6c0,0-.69-.02-1.02.07-.33.09-.78.18-.69.62.09.45.29,1.02.53.8.25-.22.35-.69,1.32-.55,1.17.17,2.75.51,3.53.51s1.8-.18,1.8-.58-.68-.62-.97-.67c-.29-.04-.86-.07-.86-.07,0,0,.85-.22,1.22-.87.38-.65,1-1.76.94-3.47-.07-1.71-.56-3.1-.6-3.7-.04-.6.6-1.07.89-.56.29.51.31.22.31.22,0,0,.16-.82-.27-1.83-.42-1-.78-1.38-.76-1.54.02-.16.26-.25.62.11m-5.06-2.31c-.06,0-.09-.07-.04-.11.3-.19.85-.49.95-.26.1.23-.55.33-.91.37m1.47,6.41c-.09,1.18-.13,4.59-.73,5.08-.6.49-1.58.33-1.61-.49-.02-.82.38-1.43.89-1.67.51-.24.45-.02.45-.02,0,0-.71.29-.8.8-.09.51-.11,1.6.42.98.53-.62.85-1.47.82-2.78-.02-1.31.56-4.61,2.61-5.32,0,0-1.96,2.25-2.05,3.43m2.14-5.37c-.13.94-1.4,1.69-2.12,2.14-.71.45-1.67,2.45-1.67,2.45,0,0,.2-1.34.65-2,.45-.67,1.78-1.47,2.47-2.25.69-.78.33-2.12.33-2.12,0,0,.47.85.33,1.78"/>
      <path class="cls-2" d="m56.13,55.19c.06-.02.04-.11-.02-.1-.96.11-1.34-.09-2.67.89-.17.13.06.72.61.21.3-.29,1.49-.8,2.08-.99"/>
      <path class="cls-2" d="m55.05,55.88s-.02-.07-.05-.05c-.26.16-.74.5-.78.66-.04.22.31.24.4.04.06-.14.29-.46.42-.65"/>
      <path class="cls-2" d="m54.78,54.84s-.98.17-.74.42c.24.24.74-.42.74-.42"/>
      <path class="cls-2" d="m25.99,18.26c-.06-.06-.32,0-.32,0,0,0,.03-2.33-.13-4.05-.03-.35-.07-1.42-.07-1.42,0-.05.02-.13-.02-.22-.05-.09-.15-.16-.22-.19-.01-.27-.03-.48-.06-.48s-.05.2-.07.47c-.07.04-.17.1-.22.2-.04.09-.02.17-.02.22l-.18,5.12c0,.19-.17.35-.36.35h-.17c-.19,0-.35-.15-.36-.33-.12-1.66-.12-3.76-.12-3.76,0,0,0-.16-.03-.22-.03-.06-.09-.1-.14-.13,0-.32-.04-.57-.07-.57-.03,0-.06.24-.07.56-.05.03-.13.08-.16.14-.03.06-.03.22-.03.22l-.12,3.75c0,.2-.17.35-.36.35h-.17c-.2,0,.09-.16.09-.36,0,0,.16-2.01,0-2.57,0-.02-.08,0-.08,0v-.28c0-.15-.12-.28-.28-.28s-.28.12-.28.28h0c0,.12-.1.22-.22.22h-.19c-.1,0-.18-.08-.18-.18,0,0,.12-.56,0-.68-.03-.03-.18,0-.18,0,0-.07-.02-.21-.15-.37-.12-.15-.32-.26-.43-.32,0-.37-.04-.66-.09-.66s-.08.29-.09.66c-.11.05-.32.16-.44.32-.03.03-.05.07-.07.1,0,0,.03-.12,0-.15-.04-.04-.24,0-.24,0,.03-.03.15-.14.29-.32-1.47-.52-3.28-.16-3.97,0,.13.17.25.28.28.31,0,0-.2-.04-.24,0-.03.03,0,.15,0,.15-.02-.03-.04-.07-.07-.1-.13-.16-.33-.27-.44-.32,0-.37-.04-.66-.09-.66s-.08.3-.09.66c-.11.06-.31.17-.43.32-.13.16-.15.3-.15.37,0,0-.15-.03-.18,0-.1.1,0,.58,0,.58,0,.15-.12.27-.27.27h-.16c-.08,0-.15-.06-.15-.15v-.07c0-.15-.12-.28-.28-.28s-.28.12-.28.28v.28s-.07,0-.08,0c-.16.52,0,2.59,0,2.59,0,.19.3.34.11.34h-.22c-.18,0-.33-.15-.34-.33l-.12-3.76s0-.16-.03-.22c-.03-.07-.11-.12-.16-.14,0-.32-.03-.56-.07-.56s-.06.25-.07.57c-.05.03-.11.07-.14.13-.03.06-.03.22-.03.22l-.12,3.74c0,.19-.17.35-.36.35h-.17c-.19,0-.35-.15-.36-.35l-.18-5.13s.03-.13-.02-.22c-.05-.09-.15-.16-.22-.19-.01-.28-.04-.47-.07-.47s-.05.19-.06.47c-.07.04-.17.1-.22.19-.04.08-.02.17-.02.22,0,0-.04,1.07-.07,1.42-.13,1.45.17,1.06-.13,4.05,0,0-.26-.06-.32,0-.12.12,0,.67,0,.67,0,.31.26.52.57.57,3.46.47,6.84-.96,14.66,0,.37.05,1.12-.33,1.12-.7,0,0-.34-.44-.44-.54m-15.22-5.24h-.11v-.25s.02-.05.05-.05.05.02.05.05v.25Zm.19,0h-.11v-.25s.02-.05.05-.05.05.02.05.05v.25Zm.19,0h-.11v-.25s.02-.05.05-.05.05.02.05.05v.25Zm1.45,1.28h-.11v-.25s.02-.05.05-.05.05.02.05.05v.25Zm.19,0h-.11v-.25s.02-.05.05-.05.05.02.05.05v.25Zm2.94.5c0-.09.07-.15.15-.15s.15.07.15.15v.29h-.31v-.29Zm-.54.29h-.31v-.29c0-.09.07-.15.15-.15s.15.07.15.15v.29Zm.12-.29c0-.09.07-.15.15-.15s.15.07.15.15v.29h-.31v-.29Zm.81,3.34c0,.08-.06.14-.14.14h-.49c-.08,0-.14-.06-.14-.14v-.57c0-.19.39-.4.39-.4,0,0,.39.15.39.39v.58Zm0-1.57c0,.08-.06.14-.14.14h-.49c-.08,0-.14-.06-.14-.14v-.57c0-.19.37-.4.37-.4,0,0,.41.14.41.38v.58Zm2.92,1.41c0,.17-.14.3-.3.3h-1.28c-.17,0-.3-.14-.3-.3v-1.41c0-.52.92-.99.92-.99,0,0,.98.41.98.95v1.45Zm1.45-3.18c0-.09.07-.15.15-.15s.15.07.15.15v.29h-.31v-.29Zm-.12.29h-.31v-.29c0-.09.07-.15.15-.15s.15.07.15.15v.29Zm.85,3.06c0,.08-.06.14-.14.14h-.49c-.08,0-.14-.06-.14-.14v-.57c0-.19.39-.4.39-.4,0,0,.39.15.39.39v.58Zm0-1.57c0,.08-.06.14-.14.14h-.49c-.08,0-.14-.06-.14-.14v-.57c0-.19.36-.41.36-.41,0,0,.42.15.42.39v.58Zm0-1.49h-.31v-.29c0-.09.07-.15.15-.15s.15.07.15.15v.29Zm2.18-.73h-.11v-.25s.02-.05.05-.05.05.02.05.05v.25Zm.19,0h-.11v-.25s.02-.05.05-.05.05.02.05.05v.25Zm1.46-1.32h-.11v-.25s.02-.05.05-.05.05.02.05.05v.25Zm.19,0h-.11v-.25s.02-.05.05-.05.05.02.05.05v.25Zm.19,0h-.11v-.25s.02-.05.05-.05.05.02.05.05v.25Z"/>
      <path class="cls-2" d="m20.31,13.19s0,0,0,0c.13-.26.21-.56.16-.88-.13-.8-.73-1.38-1.53-1.73-.48-.21-.66-.51-.78-.68h-.02c0-.09.01-.19.01-.29,0-.37-.05-.67-.09-.73h0s-.02-.03-.02-.03h0s-.01.02-.02.03h0c-.06.07-.09.37-.09.74,0,.1,0,.2,0,.29h-.02c-.12.17-.35.38-.78.68-.62.44-1.24.55-1.53,1.73-.07.3.03.6.15.86.33-.1,2.73-.76,4.55.01"/>
      <path class="cls-2" d="m20.14,13.51c.04-.05.07-.11.1-.17-1.7-.72-3.99-.13-4.4-.01.04.06.07.13.11.18.66-.17,2.6-.59,4.18,0"/>
      <path class="cls-2" d="m16.3,19.09s-4.48,3.41-3.81,3.53c.68.12,1.24.19,2.33-1.29.49-.67,1.72-2.24,1.72-2.24h-.25Z"/>
      <path class="cls-2" d="m20.03,18.84s3.13,3.13,2.89,3.32c-.25.18-.74.55-1.41-.31-.52-.66-1.47-3.01-1.47-3.01"/>
      <path class="cls-2" d="m16.65,19.7c-.09-.03-.07-.16.02-.16,1.05-.03,3.49-.06,3.52.23.04.37-1.56.66-1.84.74-.29.08-.12.59,1.31.65,1.39.07,1.68.81-1.14,1.14-1.82.21-3.26.17-4.06.11-.15-.01-.17-.22-.03-.27.58-.18,1.59-.34,2.13-.53.9-.33.28-.66.15-1.03-.07-.22.44-.39.88-.49.12-.03.11-.2,0-.22l-.94-.17Z"/>
      <path class="cls-2" d="m39.73,3.77c.05.05.1.1.16.14.07.04.14.06.22.06.04,0,.08,0,.12-.02.12-.04.22-.14.27-.26.07-.17.07-.34.06-.51v-.1c0-.37.09-.74.17-1.06.01-.06.03-.12.05-.18.05-.17.1-.35.11-.54,0-.14-.01-.39-.17-.54-.07-.07-.16-.1-.25-.09-.12.01-.24.09-.32.2-.1.14-.16.31-.22.48-.02.05-.03.09-.05.14-.2.51-.41,1.12-.36,1.73.02.22.09.42.22.57"/>
      <path class="cls-2" d="m42.29,8.54c.13-.71,0-1.44-.36-2.11-.44-.82-1.23-1.52-2.16-1.92-.33-.14-.67-.25-1.02-.31h-.03c-1.38-.25-3.08.07-3.69,1.69-.11.28-.18.59-.2.91-.05.55,0,1.12.17,1.69.12.4.28.8.49,1.18.22.4.57.98,1.09,1.4.48.39,1.08.55,1.7.55.93,0,1.9-.37,2.62-.9.3-.23.57-.49.78-.78.31-.42.52-.9.6-1.39m-1.36.11c-.11.71-.79,1.06-1.19,1.21-.58.21-1.18.31-1.7.26-.51-.05-.89-.28-1.21-.75-.73-1.08-1.2-2.6-.12-3.37.53-.38,1.2-.58,1.81-.58.26,0,.5.04.72.11,1.34.46,1.87,1.96,1.68,3.13"/>
      <path class="cls-2" d="m46.02,9.52h0c-.1-.06-.21-.12-.31-.17-.1-.05-.2-.1-.29-.16-.18-.1-.36-.21-.54-.32-.44-.26-.9-.54-1.36-.76-.1-.05-.35-.15-.57-.05-.09.04-.2.12-.24.31-.04.16.04.3.12.41.17.23.44.35.67.46h.03c.26.13.53.26.78.39l.37.18c.19.1.38.2.58.29l.07.03c.18.09.49.24.72.24.08,0,.15-.02.2-.05.06-.04.14-.13.13-.31,0-.18-.13-.35-.35-.48"/>
      <path class="cls-2" d="m39.11,14.17c0-.08,0-.15,0-.23v-.06c0-.24-.01-.48-.05-.72,0,0-.08-.51-.34-.62-.06-.03-.15-.05-.27.02-.33.21-.36.71-.38.95-.03.52.03,1.08.18,1.76v.06c.05.18.09.36.21.52.08.11.19.16.31.16.01,0,.03,0,.04,0,.13-.02.25-.11.31-.26.07-.17.06-.36.05-.51-.02-.36-.04-.71-.05-1.07"/>
      <path class="cls-2" d="m33.69,7.52c-.22.02-.42.11-.63.21h0c-.39.19-.81.39-1.24.61-.46.24-.49.51-.44.69.03.1.08.18.17.22.06.03.12.04.18.04.12,0,.25-.04.38-.09.1-.04.21-.08.31-.12.21-.08.43-.17.65-.24.28-.09.6-.2.89-.36.13-.07.35-.26.38-.48.02-.11-.02-.21-.1-.3-.13-.14-.38-.21-.55-.19"/>
      <path class="cls-2" d="m42.41,6.07h.01s.07,0,.11,0c.25-.03.46-.16.66-.28.05-.03.09-.05.14-.08.18-.1.36-.2.54-.31.06-.04.13-.07.19-.11.09-.05.18-.1.26-.15l.07-.04c.13-.07.29-.16.37-.3.06-.11.08-.26.04-.39-.07-.24-.34-.29-.56-.23-.1.03-.2.08-.29.13-.05.02-.09.05-.14.07-.39.17-.79.35-1.18.53-.03.01-.07.03-.1.05-.28.12-.8.34-.65.78.07.21.26.33.52.33"/>
      <path class="cls-2" d="m36.27,10.86c-.11-.05-.23-.04-.37,0-.15.06-.31.15-.47.29-.06.05-.11.1-.16.15-.18.18-.33.39-.47.58-.14.19-.3.41-.39.65-.05.14-.07.26-.05.37.01.09.05.17.11.22.05.04.11.06.18.06.05,0,.1-.01.16-.03.26-.09.46-.29.63-.46l.82-.82c.11-.11.26-.26.29-.45.03-.14,0-.28-.09-.39-.05-.07-.13-.13-.21-.17"/>
      <path class="cls-2" d="m43.33,13.26h0l.1-.03c-.02-.11-.03-.21-.07-.31-.07-.18-.18-.42-.32-.65-.16-.26-.33-.51-.5-.76-.03-.04-.06-.09-.09-.13-.13-.21-.28-.44-.52-.52-.2-.06-.32.03-.37.08-.11.12-.13.32-.06.49.04.1.1.19.16.28.02.04.05.07.07.11.08.14.16.27.24.41.15.25.3.49.45.73.1.16.22.31.34.45.08.1.22.26.38.27,0,0,0,0,0,0,.06,0,.14-.02.22-.1.11-.12.08-.27.07-.35l-.1.02Z"/>
      <path class="cls-2" d="m35.27,2.69c.04.07.09.17.13.27.11.23.18.36.24.43.07.08.17.13.28.13.02,0,.03,0,.05,0,.11-.01.21-.07.28-.16h.01s.07-.1.07-.15v-.02c.05-.18-.02-.39-.11-.66v-.04c-.03-.05-.05-.11-.07-.16-.12-.37-.42-.7-.65-.84-.1-.06-.26-.14-.4-.07-.09.04-.14.12-.16.23-.02.44.15.77.28.97.01.03.02.05.04.07"/>
      <path class="cls-2" d="m31.87,4.2c.65.48,1.65,1.23,1.77,1.34.04.03.36.32.65.32.03,0,.06,0,.08,0,.16-.04.43-.16.35-.6-.06-.33-.29-.51-.71-.82l-.05-.04c-.4-.3-1.57-.92-1.8-1.02-.21-.09-.43-.17-.6-.04-.05.03-.15.13-.13.32.03.27.3.46.44.55"/>
      <path class="cls-2" d="m56.31,11.82l6.44-1.92c.42-.12.87-.04,1.22.22l.04.03c.06.04.05.13-.01.17l-3.93,2.25-1.06,1.34,3.5,3.89,2.93-.88.44.36-2.14,1.62.25.59h-.62s-1.08,2.43-1.08,2.43l-.55-.39.16-2.98-4.36-2.9-1.09,1.35-1.38,4.72c-.02.07-.1.1-.16.05l-.04-.04c-.36-.29-.55-.74-.53-1.2l.44-7.12-3.61-3.27-.3-1c-.09-.26.13-.51.4-.47l1.13.17,3.92,2.98Z"/>
      <path class="cls-2" d="m10.93,28.78h-.63c-.15,0-.27-.13-.27-.28v-.07c0-.15.12-.27.28-.27h.63c.15,0,.27.13.27.28v.07c0,.15-.13.27-.28.27"/>
      <polygon class="cls-2" points="11.01 29.03 10.24 29.02 10.01 28.7 11.21 28.71 11.01 29.03"/>
      <path class="cls-2" d="m10.92,28.27h-.62c-.11,0-.19-.09-.19-.2v-.05c0-.11.09-.19.2-.19h.62c.11,0,.19.09.19.2v.05c0,.11-.09.19-.2.19"/>
      <path class="cls-2" d="m11,27.9h-.78c-.05,0-.1-.05-.1-.11v-.03c0-.05.05-.1.1-.1h.78c.05,0,.1.05.1.11v.03c0,.06-.05.1-.1.1"/>
      <path class="cls-2" d="m10.95,27.68c0,.18-.15.33-.33.33-.18,0-.33-.15-.33-.34,0-.18.15-.33.33-.33.18,0,.33.15.33.34"/>
      <path class="cls-2" d="m10.63,27.47h-.03c-.05,0-.1-.05-.1-.1v-.1c0-.05.05-.1.1-.1h.03c.05,0,.1.05.1.1v.1c0,.06-.05.1-.1.1"/>
      <path class="cls-2" d="m10.63,27.26h-.02s-.07-.03-.07-.07v-.63s.04-.07.07-.07h.02s.07.03.07.07v.63s-.04.07-.07.07"/>
      <polygon class="cls-2" points="10.65 26.69 10.6 26.69 10.6 25.56 10.63 25.53 10.66 25.56 10.65 26.69"/>
      <path class="cls-2" d="m16.77,50.52c-.24.03-.34-.11-.44-.28-.71-1.19-1.42-2.37-2.12-3.57-.08-.13-.14-.34-.1-.47.12-.39.08-.65-.43-.68-.03-.05-.05-.11-.08-.16.21-.1.42-.21.63-.31-.03-.04-.07-.08-.1-.12-.18,0-.32.03-.54,0-.31-.04-.44-.09-.53-.38-.24-.86-.5-1.71-.77-2.55-.1-.32-.1-.59.06-.89.16-.32.09-.58-.23-.71-.18-.08-.22-.18-.24-.34-.1-.84-.24-1.67-.3-2.51-.17-2.82-.58-8.61-.58-8.61l-.76.05s-.2,2.7-.3,3.96c-.2,2.45-.43,4.89-.64,7.29-.59.24-.76.5-.47,1.04.06.11.09.28.05.4-.3,1-.62,2-.95,2.99-.03.1-.21.21-.33.23-.23.03-.46,0-.69,0l-.13.2c.21.1.42.21.63.31-.55.2-.53.21-.47.7.02.2-.04.43-.14.6-.65,1.09-1.33,2.17-2,3.26-.18.29-.31.62-.79.54.09.13.19.23.29.23.73.02,1.47.04,2.2,0,.23,0,.45-.18.67-.28l-.04-.12c-.15-.02-.3-.04-.49-.06.28-.53.53-1.05.83-1.54.17-.28.39-.55.66-.74.96-.66,2.04-.7,3.15-.57,1.22.15,2.01.54,2.63,1.84.16.33.27.71.45,1.06l-.47.06s-.03.06-.04.1c.19.11.37.29.56.3.79.04,1.59.03,2.38.02.06,0,.13-.09.19-.14-.07-.05-.14-.14-.2-.13m-7.39-5.66c.15-.75.3-1.47.46-2.2.01-.06.11-.13.18-.13.34,0,.68,0,1.03,0,.1,0,.18.07.2.16.15.73.29,1.44.44,2.18l-2.3-.02Z"/>
      <path class="cls-2" d="m21.8,60.63c-.11.12-.12.17-.23.29-2.83,3.11-2.96,7.93-2.96,7.93l.88-.14s.24-3.13.97-5.1c.52-1.4,1.65-2.85,1.65-2.87-.19-.09-.12-.01-.32-.1"/>
      <path class="cls-2" d="m16.75,68.9s1.08-1.83,2.85-1.4c1.78.43,2.53,1.29,2.53,1.29,0,0,.22.38-.86.38s-5.01.59-4.52-.27"/>
      <path class="cls-2" d="m27.06,56.75c-.4.16-1.22.47-2.21.79-.84.27-1.44.96-1.8,1.5.13-.76.25-1.96-.12-2.71-.44-.9-1.25-1.85-1.61-2.26-.07-.07-.19-.03-.19.07-.03.51-.06,1.58.07,1.85.18.36.64.5.64.5l-.23.03c-.16.02-.27.18-.24.33.05.28.13.69.22.99,0,0-.9-1.11-2.18-1.13-.86-.02-1.72.28-2.19.48-.18.07-.21.3-.07.43l1.18,1.02c.17.15.41.18.62.08l.64-.31c.09-.05.19.06.14.15l-.11.19c-.09.16-.02.36.15.43l1.29.54c-1.2.09-3.18.3-3.6.67-.43.37-.92,1.13-1.19,1.58-.09.15.03.33.2.32l2.34-.16.2-.74c.02-.09.14-.11.19-.03l.44.71,1.95-1.18c-.05.34-.26.43-.21.86l1.43-2.24,1.06.04c.81-.38,1.94-.93,1.94-.93l-.36-.5s.73.23,1.15,0c.29-.17.53-.82.66-1.21.04-.12-.08-.23-.19-.18"/>
      <path class="cls-2" d="m26.23,64.59c-.06-.5-.18-1.36-.4-1.85-.22-.49-1.86-1.46-2.86-2.02l1.33.04c.17,0,.31-.14.3-.32l-.02-.21c0-.1.12-.15.18-.07l.43.53c.14.17.36.24.57.18l1.44-.42c.17-.05.24-.27.11-.4-.33-.36-.96-.96-1.71-1.29-1.03-.45-2.15.02-2.32.1-.51.41-1.01.83-1.53,1.23.15.46.24.92.32,1.41,0,.03,0,.06,0,.09l1.18,1.75.67-.44c.07-.05.17.01.16.1l-.12.72,1.97,1.07c.14.08.32-.04.3-.2"/>
      <rect class="cls-2" x="64.16" y="33.69" width="3.91" height="3.56"/>
      <path class="cls-2" d="m74.15,49.43h-10.27v-.67h10.27c.17,0,.31.14.31.31v.04c0,.17-.14.31-.31.31"/>
      <polygon class="cls-2" points="69.7 49.09 69.19 49.09 69.19 45.25 69.44 44.94 69.7 45.25 69.7 49.09"/>
      <path class="cls-2" d="m68.52,46.2l-.32.32-.06,2.57h1.06v-2.53l-.36-.36c-.09-.09-.22-.09-.31,0m.36,1.89h-.33v-.54h.33v.54Zm0-.85h-.33v-.54h.33v.54Z"/>
      <polygon class="cls-2" points="71.18 49.09 70.67 49.09 70.67 45.25 70.93 44.94 71.18 45.25 71.18 49.09"/>
      <path class="cls-2" d="m70,46.2l-.32.32-.06,2.57h1.06v-2.53l-.36-.36c-.09-.09-.22-.09-.31,0m.36,1.89h-.33v-.54h.33v.54Zm0-.85h-.33v-.54h.33v.54Z"/>
      <polygon class="cls-2" points="72.62 49.09 72.12 49.09 72.12 45.25 72.37 44.94 72.62 45.25 72.62 49.09"/>
      <path class="cls-2" d="m71.45,46.2l-.32.32-.06,2.57h1.06v-2.53l-.36-.36c-.09-.09-.22-.09-.31,0m.36,1.89h-.33v-.54h.33v.54Zm0-.85h-.33v-.54h.33v.54Z"/>
      <polygon class="cls-2" points="74.09 49.09 73.58 49.09 73.58 45.25 73.83 44.94 74.09 45.25 74.09 49.09"/>
      <path class="cls-2" d="m72.91,46.2l-.32.32-.06,2.57h1.06v-2.53l-.36-.36c-.09-.09-.22-.09-.31,0m.36,1.89h-.33v-.54h.33v.54Zm0-.85h-.33v-.54h.33v.54Z"/>
      <path class="cls-1" d="m66.06,34.09c-.79,0-1.42.64-1.42,1.42s.64,1.42,1.42,1.42,1.42-.64,1.42-1.42-.64-1.42-1.42-1.42m.92.67l-.78.74s0,.02,0,.03c0,.01,0,.03,0,.04l.09.1-.02.03-.11-.08s-.03.01-.04.01c-.01,0-.02,0-.03,0l-.13.12-.04-.04.11-.13s0-.02,0-.03c0,0,0-.01,0-.02l-.37-.29v-.14s.14.02.14.02l.3.34s.02,0,.03,0c0,0,.01,0,.02,0l.7-.83.17-.02-.02.17Z"/>
      <path class="cls-2" d="m68.41,38.67h-4.6c.02.36.04.72.05,1.08.11,3,.04,6.01.03,9.01,0,.43.13.59.57.57.95-.03,1.9,0,2.85,0,1.02,0,.93.12.96-.93.1-3.24-.2-6.48.16-9.72m-3.71,9.82s-.06,0-.1,0v-8.67h.1v8.67Zm.66.03c-.22,0-.14-.24-.14-.38,0-1.33,0-2.65,0-3.98,0-1.29-.03-2.58-.02-3.87,0-.16-.1-.46.16-.47.2,0,.14.28.14.44,0,2.62,0,5.24,0,7.86,0,.14.08.39-.13.39m.77-.03s-.07,0-.1,0v-8.68s.07,0,.1,0v8.68Zm.79-4.29c0,1.31,0,2.62,0,3.93,0,.14.08.39-.14.39-.21,0-.14-.25-.14-.39,0-2.65,0-5.31,0-7.96,0-.14-.08-.39.14-.38.21,0,.14.25.14.39,0,1.34,0,2.68,0,4.03m.62,4.38c-.19,0-.14-.25-.14-.4,0-2.67,0-5.35,0-8.02,0-.14-.08-.39.15-.38.21,0,.13.25.13.4,0,1.34,0,2.69,0,4.03,0,1.33,0,2.66,0,3.99,0,.13.1.38-.13.38"/>
      <path class="cls-2" d="m68.2,33.39v-1.11h.15v-.73h-.41l-.68-1.5h.19v-.68h-.19v-1.5h-.15c-.9-1.36-.92-4.22-.92-4.51h.23v-.18h-.23v-.76h-.11v.76h-.23v.18h.23c.07,1.99-.97,4.53-.97,4.53h-.15v1.4h-.24v.76h.19l-.73,1.5h-.47v.64h.17v1.19h-.44v4.93l.44.44h4.52l.29-.48v-4.87h-.48Zm-.9-1.07h.29v.99h-.29v-.99Zm-.29-1.35h.2v.34h-.2v-.34Zm.12,2.35h-.29v-.99h.29v.99Zm-.37-5.23h.24v1.09h-.24v-1.09Zm-.27,2.25h.2v.34h-.2v-.34Zm.17,2.98h-.29v-.99h.29v.99Zm-.29-5.23h.24v1.09h-.24v-1.09Zm-.08,2.89h.2v.34h-.2v-.34Zm-.31-2.89h.24v1.09h-.24v-1.09Zm-.05,2.25h.2v.34h-.2v-.34Zm-.02,1.99h.29v.99h-.29v-.99Zm-.32-4.24h.24v1.09h-.24v-1.09Zm-.02,2.89h.2v.34h-.2v-.34Zm.16,2.35h-.29v-.99h.29v.99Zm-.17-2.64h-.2v-.34h.2v.34Zm-.37-2.6h.24v1.09h-.24v-1.09Zm.08,5.23h-.29v-.99h.29v.99Zm-.41-2.35h.2v.34h-.2v-.34Zm-.34,1.35h.29v.99h-.29v-.99Zm.27,5.92h-.28v-.82h.28v.82Zm.46,0h-.28v-.82h.28v.82Zm.46,0h-.28v-.82h.28v.82Zm.46,0h-.28v-.82h.28v.82Zm.46,0h-.28v-.82h.28v.82Zm.46,0h-.28v-.82h.28v.82Zm.46,0h-.28v-.82h.28v.82Zm.08-1.08h-3.17v-3.29h3.17v3.29Z"/>
      <path class="cls-1" d="m67.88,35.44c0,.96-.78,1.74-1.74,1.74s-1.74-.78-1.74-1.74.78-1.74,1.74-1.74,1.74.78,1.74,1.74"/>
      <path class="cls-2" d="m67.2,34.26l-.22.03-.9,1.08s-.02,0-.02,0c-.01,0-.02,0-.04,0l-.39-.44-.19-.03v.18s.49.38.49.38c0,0,0,.02,0,.03,0,.02,0,.03,0,.04l-.15.18.06.06.17-.16s.03,0,.04,0c.02,0,.04,0,.06-.01l.14.11.03-.04-.11-.13s.01-.03.01-.05c0-.01,0-.03,0-.04l1.01-.96.02-.23Z"/>
    </g>
  </g>
</svg>